<svg xmlns="http://www.w3.org/2000/svg" viewBox="0 0 72 72" fill="none"><rect width="72" height="72" fill="url(#a)" rx="18"/><path fill="url(#b)" d="M21.375 16.125a2 2 0 0 1 2 2v12.922a6.876 6.876 0 0 1 0 13.155v9.673a2 2 0 1 1-4 0v-9.673a6.876 6.876 0 0 1 0-13.155V18.125a2 2 0 0 1 2-2Zm14.625 0a2 2 0 0 1 2 2v3.172a6.876 6.876 0 0 1 0 13.155v19.423a2 2 0 1 1-4 0V34.452a6.876 6.876 0 0 1 0-13.155v-3.172a2 2 0 0 1 2-2Zm14.625 0a2 2 0 0 1 2 2v19.422a6.876 6.876 0 0 1 0 13.155v3.173a2 2 0 1 1-4 0v-3.173a6.876 6.876 0 0 1 0-13.155V18.125a2 2 0 0 1 2-2Zm0 25.125a2.875 2.875 0 1 0 0 5.75 2.875 2.875 0 0 0 0-5.75Zm-29.25-6.5a2.875 2.875 0 1 0 0 5.75 2.875 2.875 0 0 0 0-5.75ZM36 25a2.875 2.875 0 1 0 0 5.75A2.875 2.875 0 0 0 36 25Z"/><defs><linearGradient id="a" x1="36" x2="36" y1="0" y2="72" gradientUnits="userSpaceOnUse"><stop stop-color="#393E3B"/><stop offset="1" stop-color="#1D201E"/></linearGradient><linearGradient id="b" x1="36" x2="36" y1="16.125" y2="55.875" gradientUnits="userSpaceOnUse"><stop stop-color="#fff"/><stop offset="1" stop-color="#C7D6E5"/></linearGradient></defs></svg>