<svg xmlns="http://www.w3.org/2000/svg" viewBox="0 0 72 72" fill="none"><rect width="72" height="72" fill="#1D1D1F" rx="18"/><path fill="#F7F7F7" fill-rule="evenodd" d="M25.74 52.74c5.04 0 8.195-3.812 8.195-9.867 0-6.079-3.156-9.89-8.196-9.89-5.04 0-8.194 3.811-8.194 9.889 0 6.035 3.154 9.868 8.194 9.868h.002Zm14.968-29.509a1.88 1.88 0 0 0 .254-.956v-.764l-2.202.149c-.873.06-1.406.294-1.647.705a1.22 1.22 0 0 0-.154.63c0 .846.7 1.312 1.674 1.312.932 0 1.698-.424 2.075-1.076Zm8.347 2.531c-2.626 0-4.236-1.78-4.236-4.702.002-2.857 1.61-4.637 4.236-4.615 2.266 0 3.621 1.313 3.854 3.049h-1.737c-.19-.867-.931-1.546-2.117-1.546-1.482 0-2.393 1.166-2.393 3.113 0 1.969.911 3.177 2.393 3.177 1.123 0 1.884-.529 2.118-1.504h1.736c-.233 1.78-1.63 3.028-3.854 3.028Zm-28.44-.17v-8.98l1.717-.02v1.44h.127c.38-1.016 1.29-1.61 2.496-1.61 1.23 0 2.077.636 2.479 1.61h.148c.445-.973 1.483-1.61 2.732-1.61 1.822 0 2.88 1.102 2.88 2.965v6.206h-1.778V19.83c0-1.25-.574-1.842-1.737-1.842-1.165 0-1.906.847-1.906 1.927v5.675h-1.737v-5.95c0-1.017-.677-1.652-1.737-1.652-1.08 0-1.905.931-1.905 2.096v5.506h-1.779Zm5.124 4.552c6.989 0 11.352 4.913 11.352 12.727 0 7.793-4.363 12.706-11.352 12.706-6.987.001-11.35-4.891-11.35-12.706 0-7.814 4.363-12.727 11.352-12.727h-.002Zm15.163-5.824c-.551.912-1.524 1.419-2.711 1.419-1.736 0-3.006-1.037-2.986-2.647 0-1.63 1.207-2.562 3.347-2.689l2.435-.148v-.784c0-.995-.635-1.546-1.842-1.546-.996 0-1.694.36-1.886 1.017h-1.714c.191-1.502 1.631-2.498 3.684-2.498 2.266 0 3.537 1.122 3.537 3.007v6.14h-1.715v-1.27h-.149Zm9.551 17.196c5.125 1.122 7.158 3.156 7.158 6.649 0 4.553-3.579 7.412-9.064 7.412-5.378 0-8.958-2.753-9.254-7.008h3.07c.36 2.645 2.816 4.255 6.353 4.255 3.325 0 5.76-1.758 5.76-4.172 0-2.055-1.377-3.43-4.785-4.172l-2.732-.593c-4.934-1.08-7.074-3.324-7.074-6.818 0-4.045 3.58-6.904 8.683-6.904 4.913 0 8.449 2.944 8.597 7.115h-3.07c-.276-2.711-2.393-4.361-5.611-4.361-3.072 0-5.443 1.503-5.443 4.001 0 1.927 1.313 3.262 4.68 4.003l2.732.593Z" clip-rule="evenodd"/></svg>