<svg xmlns="http://www.w3.org/2000/svg" width="72" height="72" fill="none"><rect width="72" height="72" fill="url(#a)" rx="18"/><path fill="#fff" d="M40.75 36a4.75 4.75 0 1 0-9.5 0 4.75 4.75 0 0 0 9.5 0Zm4 0a8.75 8.75 0 1 1-17.5 0 8.75 8.75 0 0 1 17.5 0Z" opacity=".95"/><path fill="#fff" d="M49.194 36c0-3.244-1.197-6.375-3.361-8.791a1.999 1.999 0 1 1 2.979-2.668 17.174 17.174 0 0 1 0 22.918 1.999 1.999 0 1 1-2.979-2.668A13.176 13.176 0 0 0 49.194 36ZM18.809 36c0-4.229 1.56-8.309 4.382-11.459a2 2 0 0 1 2.98 2.668 13.176 13.176 0 0 0-.395 17.12l.394.462.129.16a2 2 0 0 1-3.108 2.508A17.175 17.175 0 0 1 18.809 36Z" opacity=".7"/><path fill="#fff" d="M57.635 36a21.6 21.6 0 0 0-5.82-14.75l-.367-.382-.136-.153a2 2 0 0 1 2.84-2.788l.15.138.434.454a25.6 25.6 0 0 1-.434 35.415 2 2 0 1 1-2.854-2.802A21.6 21.6 0 0 0 57.635 36ZM10.367 36A25.6 25.6 0 0 1 17.7 18.065l.15-.138a2 2 0 0 1 2.705 2.941l-.366.383a21.6 21.6 0 0 0 .366 29.88 2.001 2.001 0 0 1-2.704 2.942l-.15-.139-.435-.453A25.6 25.6 0 0 1 10.367 36Z" opacity=".4"/><defs><linearGradient id="a" x1="36" x2="36" y1="0" y2="72" gradientUnits="userSpaceOnUse"><stop stop-color="#EF642E"/><stop offset="1" stop-color="#EC571D"/></linearGradient></defs></svg>