<svg xmlns="http://www.w3.org/2000/svg" width="72" height="72" fill="none"><rect width="72" height="72" fill="url(#a)" rx="18"/><path fill="#1C190E" d="M34.493 57.047c.27-.908 1.3-1.535 2.227-1.278.631.136 1.13.629 1.368 1.217.064.309.143.629.058.944-.138.864-.956 1.581-1.84 1.56-.246.005-.485-.058-.723-.111a2.333 2.333 0 0 1-1.071-1.09c-.093-.406-.17-.84-.019-1.242Zm-5.3-2.417c.693-.113 1.45.107 1.89.664l.156.219c.34.526.321 1.212.111 1.788-.267.452-.67.808-1.155 1.014-.368.02-.742.062-1.107-.015a1.904 1.904 0 0 1-1.285-1.31c-.088-.52-.076-1.097.25-1.536.26-.412.69-.666 1.14-.824Zm13.624 0c.43-.03.886-.048 1.275.172.5.233.822.709 1.01 1.21.038.406.03.82-.092 1.212a2.39 2.39 0 0 1-1.125 1.068c-.373.048-.754.079-1.126.02-.647-.18-1.196-.723-1.341-1.384-.062-.459-.066-.962.19-1.367.258-.46.716-.767 1.21-.93Zm6.01-3.015c.428-.025.878-.058 1.268.16l.142.042c.415.294.734.7.9 1.185.012.376.064.772-.083 1.13-.205.54-.666.956-1.202 1.157-.88.257-1.876-.171-2.283-.995-.032-.1-.062-.198-.096-.295-.03-.166-.06-.332-.092-.495.035-.203.065-.406.088-.61.234-.61.744-1.07 1.358-1.279Zm-25.32-.02c.724.037 1.358.545 1.641 1.205.191.65.109 1.409-.37 1.92-.366.443-.947.67-1.517.613-.758.013-1.416-.542-1.692-1.223a3.505 3.505 0 0 1-.087-.892c.04-.138.074-.276.105-.413.278-.655.908-1.174 1.629-1.21h.292Zm11.597-2.82c.463-.408 1.12-.466 1.703-.358.639.183 1.17.71 1.317 1.364.244.879-.275 1.842-1.092 2.21a2.376 2.376 0 0 1-1.5-.013 2.152 2.152 0 0 1-1.113-1.381c-.08-.674.138-1.397.685-1.823ZM17.9 46.841c.455-.02.946-.098 1.366.126.618.301 1.092.961 1.05 1.667.076.843-.56 1.625-1.348 1.856-.6.14-1.278.04-1.74-.39-.778-.623-.887-1.917-.208-2.65.232-.282.558-.455.88-.61Zm36.025-.13a1.813 1.813 0 0 1 1.764.847c.298.43.284.983.22 1.48-.247 1.097-1.61 1.754-2.616 1.227-.935-.398-1.34-1.59-.933-2.502.325-.559.877-1.073 1.565-1.052Zm-24.7-.136c.62.116 1.206.506 1.45 1.104.196.39.147.838.127 1.26-.247.733-.895 1.334-1.685 1.393-1.053.12-2.097-.816-2.031-1.888-.072-1.114 1.058-2.055 2.139-1.869Zm14.09-.11c.616-.08 1.283.082 1.716.549.298.27.434.655.558 1.026.04.567-.107 1.165-.516 1.578-.413.475-1.067.655-1.678.611-.703-.178-1.337-.687-1.521-1.409-.28-.908.283-1.89 1.132-2.249l.31-.105Zm-19.462-5.26c.317.132.65.254.907.492a1.93 1.93 0 0 1 .586 1.68c-.143 1.016-1.186 1.739-2.188 1.6-.657-.174-1.27-.626-1.47-1.297-.265-.678-.025-1.475.495-1.961.24-.251.574-.37.882-.511.262-.002.525-.003.788-.002ZM48.15 41.2c.441-.112.92-.166 1.353.009.533.216.98.675 1.142 1.231.066.378.029.764.006 1.144-.26.592-.755 1.11-1.409 1.237-.885.234-1.8-.333-2.178-1.127a3.236 3.236 0 0 1-.1-1.118c.116-.271.217-.556.404-.79.203-.261.5-.424.782-.586Zm-33.472-.472c1.093-.393 2.391.529 2.41 1.684.073.796-.439 1.6-1.19 1.871-.474.21-1.012.137-1.489-.022-.36-.235-.716-.514-.9-.912-.228-.441-.144-.956-.112-1.43.252-.543.675-1.047 1.28-1.191Zm42.455-.102c.622.05 1.25.356 1.574.91.285.412.275.937.225 1.415-.072.534-.485.926-.891 1.238-.635.302-1.423.313-2.01-.105-.73-.483-.977-1.47-.7-2.278.343-.675 1.03-1.18 1.802-1.18Zm-24.725-.312c.892.02 1.607.771 1.793 1.61.026.603-.148 1.253-.62 1.658-.493.47-1.229.603-1.874.42-.723-.28-1.311-.987-1.29-1.787-.023-.51.223-.98.536-1.364.413-.325.91-.597 1.455-.537Zm7.692.016c.356.15.726.311.982.614.344.333.428.823.513 1.273-.083.685-.432 1.38-1.088 1.673-.397.215-.875.165-1.307.127-.79-.196-1.443-.97-1.396-1.801-.052-.789.501-1.556 1.246-1.797.333-.137.7-.103 1.05-.089Zm-19.978-5.906c.56-.43 1.334-.435 1.973-.189.377.247.736.56.892.997.172.36.127.766.118 1.152-.176.468-.448.925-.895 1.18-.752.438-1.814.303-2.386-.372-.694-.783-.575-2.161.298-2.768Zm8.398-.35c.805-.08 1.619.463 1.868 1.23.177.412.126.87.02 1.294-.292.662-.928 1.228-1.685 1.209-.686.07-1.38-.306-1.723-.899-.329-.506-.324-1.141-.142-1.698.308-.629.934-1.155 1.662-1.136Zm13.94.207c.71-.372 1.669-.264 2.23.327.212.194.337.457.482.7.157.724.046 1.567-.572 2.047-.524.514-1.33.547-1.996.334-.618-.332-1.148-.96-1.109-1.697-.068-.705.373-1.366.966-1.71Zm-29.076-.164a2.584 2.584 0 0 1 1.245.077c.418.23.767.568.991.992.15.489.168 1.018.006 1.505-.235.417-.567.78-1.004.988l-.207.094c-.634.095-1.353.044-1.817-.454-.632-.517-.71-1.42-.472-2.154.28-.48.703-.913 1.258-1.048Zm22.633-.044c1.164-.057 2.137 1.215 1.8 2.322A1.904 1.904 0 0 1 36.5 37.76a2.57 2.57 0 0 1-1.287-.078c-.386-.221-.735-.52-.936-.924-.05-.128-.098-.253-.15-.376a3.09 3.09 0 0 1 .1-1.179c.328-.668 1.017-1.193 1.79-1.13Zm13.87.185c.496-.267 1.094-.213 1.618-.06.403.235.785.553.96 1 .184.37.14.794.13 1.194-.196.534-.547 1.042-1.088 1.27-.405.201-.869.139-1.304.117-.276-.145-.574-.264-.8-.485-.22-.23-.351-.526-.498-.803-.022-.364-.064-.735.02-1.093.161-.482.498-.917.962-1.14Zm7.222.084c.43-.296.979-.313 1.478-.228.753.199 1.344.887 1.405 1.668.08.776-.394 1.554-1.098 1.874-.4.211-.866.142-1.3.127-.303-.144-.621-.284-.855-.533-.262-.268-.382-.63-.522-.966-.076-.742.229-1.555.892-1.942Zm-18.83-5.915c.497-.601 1.366-.724 2.078-.498.43.16.762.483 1.002.865.22.49.204 1.035.121 1.554-.228.406-.512.814-.948 1.017-.719.39-1.687.218-2.235-.386-.22-.232-.342-.532-.477-.816-.06-.61-.001-1.283.458-1.736Zm-6.573-.556c.399-.04.8-.043 1.2 0 .53.236.99.64 1.193 1.197.085.367.153.758.02 1.123-.146.57-.598.996-1.103 1.265-.502.141-1.064.18-1.536-.072-.852-.389-1.302-1.475-.94-2.345.177-.553.657-.931 1.166-1.168Zm24.1-.287c.731-.534 1.86-.42 2.457.269.534.522.597 1.35.372 2.03-.334.618-.958 1.145-1.695 1.115-.843.077-1.628-.55-1.873-1.335-.075-.356-.039-.722-.02-1.081.18-.38.406-.756.76-.998Zm-41.864-.137c.445-.328 1.031-.336 1.555-.245.598.166 1.115.642 1.285 1.245.281.773-.07 1.705-.753 2.145a1.914 1.914 0 0 1-2.19-.076c-.389-.262-.576-.71-.735-1.132-.085-.735.196-1.53.838-1.937Zm8.782-.46c.667-.221 1.444.006 1.909.529.381.385.528.942.524 1.472-.122.632-.494 1.228-1.092 1.505-.366.2-.79.2-1.195.182-.488-.185-.988-.442-1.24-.925-.328-.52-.319-1.174-.115-1.738.278-.457.672-.887 1.209-1.025Zm24.538.394c.46-.594 1.268-.797 1.985-.653.59.223 1.06.68 1.306 1.26.028.442.097.914-.09 1.332-.285.655-.968 1.166-1.702 1.104-.842.088-1.626-.548-1.853-1.335-.14-.585-.04-1.24.354-1.708Zm-4.045-5.945c.756-.023 1.508.463 1.782 1.171.327.8.044 1.81-.693 2.279-.545.393-1.28.333-1.891.152-.597-.347-1.073-.978-1.027-1.696-.078-1.008.84-1.908 1.829-1.907Zm-15.148-.061c.383-.09.78-.029 1.155.067.521.277.979.726 1.113 1.318.127.355.037.73-.037 1.087-.172.36-.394.712-.74.928-.302.223-.68.279-1.04.343a10.778 10.778 0 0 0-.678-.115c-.68-.31-1.243-.985-1.223-1.759-.042-.865.608-1.686 1.45-1.87Zm-11.542.656c.52-.665 1.515-.902 2.275-.527.803.35 1.27 1.326 1.024 2.17a1.862 1.862 0 0 1-1.333 1.356c-.386.071-.78.03-1.165-.023-.464-.258-.921-.61-1.088-1.136-.137-.323-.123-.678-.113-1.02.115-.282.21-.578.4-.82Zm37.195-1.013c1.038-.099 1.998.905 1.902 1.933.009.884-.73 1.68-1.599 1.79-.234.015-.468.002-.702-.002-.64-.22-1.242-.703-1.392-1.39-.067-.473-.078-.996.187-1.415.306-.572.95-.952 1.604-.916Zm-18.206-1.42c.49-.057 1.028-.074 1.454.216.632.348.915 1.088.937 1.779-.113.34-.185.713-.431.988-.204.257-.48.44-.756.607-.389.126-.8.124-1.203.092-.577-.205-1.064-.614-1.307-1.182-.111-.362-.1-.742-.081-1.115.217-.638.708-1.23 1.388-1.384Zm-12.36-3.193c.112.033.225.063.338.092.747.246 1.339.973 1.291 1.78.08 1-.83 1.907-1.818 1.903-.873.046-1.722-.619-1.887-1.477-.068-.478-.042-.995.24-1.405.277-.507.828-.765 1.365-.899.157.001.314.002.471.006Zm25.224-.1c.757-.102 1.568.234 1.96.902.324.486.263 1.099.181 1.646-.255.495-.642.955-1.192 1.12-.869.318-1.933-.13-2.307-.977-.22-.403-.164-.874-.151-1.313.218-.564.621-1.05 1.192-1.276.106-.032.212-.066.317-.102Zm-20.07-2.926c.825-.286 1.825.052 2.258.82.485.783.29 1.912-.455 2.465-.428.337-.981.434-1.512.388a2.24 2.24 0 0 1-1.346-1.015c-.238-.61-.26-1.35.125-1.906.203-.361.578-.563.93-.752Zm13.822-.1c.703-.067 1.472.195 1.873.802.451.61.452 1.498.036 2.125-.44.69-1.372 1.039-2.151.762-.507-.158-.902-.552-1.155-1.007l-.037-.12c-.153-.57-.159-1.234.205-1.729.273-.438.757-.67 1.229-.833Zm-6.602-.771c.333-.022.666.008.991.088.712.284 1.276.997 1.22 1.787.057.787-.496 1.515-1.216 1.784a7.207 7.207 0 0 0-.318.1c-.226.004-.45.004-.674 0a8.324 8.324 0 0 0-.314-.101c-.624-.244-1.107-.814-1.202-1.482-.023-.266 0-.533.012-.797.224-.56.61-1.068 1.195-1.276.102-.033.204-.067.306-.103Z"/><defs><radialGradient id="a" cx="0" cy="0" r="1" gradientTransform="matrix(0 36 -36 0 36 36)" gradientUnits="userSpaceOnUse"><stop stop-color="#FFD139"/><stop offset="1" stop-color="#FFC402"/></radialGradient></defs></svg>