<svg xmlns="http://www.w3.org/2000/svg" width="72" height="72" fill="none"><g clip-path="url(#a)"><path fill="#000" d="M0 0h72v72H0z"/><g clip-path="url(#b)"><path fill="#1ED760" d="M36 8.875C21.027 8.875 8.875 21.027 8.875 36S21.027 63.125 36 63.125 63.125 50.973 63.125 36 50.973 8.875 36 8.875Z"/><path fill="#000" d="M53.347 33.277c-.569 0-.919-.143-1.411-.427-7.788-4.648-21.711-5.764-30.724-3.248-.393.109-.885.284-1.41.284-1.444 0-2.549-1.127-2.549-2.581 0-1.488.919-2.33 1.903-2.614 3.85-1.127 8.16-1.663 12.852-1.663 7.984 0 16.351 1.663 22.465 5.228.854.492 1.411 1.17 1.411 2.472a2.534 2.534 0 0 1-2.537 2.549Zm-3.39 8.334c-.57 0-.952-.252-1.346-.46-6.836-4.046-17.03-5.676-26.097-3.215-.525.142-.81.284-1.302.284a2.124 2.124 0 0 1-2.121-2.122c0-1.17.568-1.946 1.695-2.264 3.04-.853 6.147-1.487 10.697-1.487 7.098 0 13.956 1.76 19.36 4.977.885.525 1.235 1.203 1.235 2.154-.01 1.181-.93 2.133-2.122 2.133Zm-2.943 7.175c-.46 0-.744-.142-1.17-.394-6.825-4.112-14.766-4.287-22.608-2.68-.427.11-.984.285-1.302.285-1.06 0-1.728-.842-1.728-1.728 0-1.127.667-1.663 1.488-1.838 8.958-1.98 18.112-1.804 25.922 2.866.667.427 1.06.81 1.06 1.805 0 .995-.776 1.684-1.662 1.684Z"/></g></g><defs><clipPath id="a"><rect width="72" height="72" fill="#fff" rx="18"/></clipPath><clipPath id="b"><path fill="#fff" d="M8.875 8h54.25v56H8.875z"/></clipPath></defs></svg>