<svg xmlns="http://www.w3.org/2000/svg" width="32" height="32" fill="none"><g clip-path="url(#a)"><mask id="b" width="32" height="32" x="0" y="0" maskUnits="userSpaceOnUse" style="mask-type:luminance"><path fill="#fff" d="M0 0h32v32H0V0Z"/></mask><g mask="url(#b)"><mask id="c" width="32" height="32" x="0" y="0" maskUnits="userSpaceOnUse" style="mask-type:alpha"><path fill="#EDEDED" d="M0 12.8c0-4.48 0-6.72.872-8.432A8 8 0 0 1 4.368.872C6.08 0 8.32 0 12.8 0h6.4c4.48 0 6.72 0 8.432.872a8 8 0 0 1 3.496 3.496C32 6.08 32 8.32 32 12.8v6.4c0 4.48 0 6.72-.872 8.432a8 8 0 0 1-3.496 3.496C25.92 32 23.68 32 19.2 32h-6.4c-4.48 0-6.72 0-8.432-.872a8 8 0 0 1-3.496-3.496C0 25.92 0 23.68 0 19.2v-6.4Z"/></mask><g mask="url(#c)"><path fill="#EDEDED" d="M0 0h32v32H0V0Z"/><path fill="#4B4B4B" d="M6 23.4c0-.84 0-1.26.163-1.581a1.5 1.5 0 0 1 .656-.655C7.139 21 7.559 21 8.4 21h1.2c.84 0 1.26 0 1.581.163a1.5 1.5 0 0 1 .655.656c.164.32.164.74.164 1.581v1.2c0 .84 0 1.26-.164 1.581a1.5 1.5 0 0 1-.655.655c-.32.164-.74.164-1.581.164H8.4c-.84 0-1.26 0-1.581-.163a1.5 1.5 0 0 1-.656-.656C6 25.861 6 25.441 6 24.6v-1.2Z"/><path fill="#767676" d="M13 23.4c0-.84 0-1.26.164-1.581a1.5 1.5 0 0 1 .655-.655c.32-.164.74-.164 1.581-.164h1.2c.84 0 1.26 0 1.581.163a1.5 1.5 0 0 1 .655.656c.164.32.164.74.164 1.581v1.2c0 .84 0 1.26-.163 1.581a1.5 1.5 0 0 1-.656.655c-.32.164-.74.164-1.581.164h-1.2c-.84 0-1.26 0-1.581-.163a1.5 1.5 0 0 1-.655-.656C13 25.861 13 25.441 13 24.6v-1.2Z"/><path fill="#A9A9A9" d="M20 23.4c0-.84 0-1.26.163-1.581a1.5 1.5 0 0 1 .656-.655c.32-.164.74-.164 1.581-.164h1.2c.84 0 1.26 0 1.581.163a1.5 1.5 0 0 1 .655.656c.164.32.164.74.164 1.581v1.2c0 .84 0 1.26-.163 1.581a1.5 1.5 0 0 1-.656.655c-.32.164-.74.164-1.581.164h-1.2c-.84 0-1.26 0-1.581-.163a1.5 1.5 0 0 1-.655-.656C20 25.861 20 25.441 20 24.6v-1.2Z"/></g></g></g><defs><clipPath id="a"><path fill="#fff" d="M0 0h32v32H0z"/></clipPath></defs></svg>