<svg xmlns="http://www.w3.org/2000/svg" width="32" height="32" fill="none"><g clip-path="url(#a)"><mask id="b" width="32" height="32" x="0" y="0" maskUnits="userSpaceOnUse" style="mask-type:luminance"><path fill="#fff" d="M0 0h32v32H0V0Z"/></mask><g mask="url(#b)"><mask id="c" width="32" height="32" x="0" y="0" maskUnits="userSpaceOnUse" style="mask-type:alpha"><path fill="#EDEDED" d="M0 12.8c0-4.48 0-6.72.872-8.432A8 8 0 0 1 4.368.872C6.08 0 8.32 0 12.8 0h6.4c4.48 0 6.72 0 8.432.872a8 8 0 0 1 3.496 3.496C32 6.08 32 8.32 32 12.8v6.4c0 4.48 0 6.72-.872 8.432a8 8 0 0 1-3.496 3.496C25.92 32 23.68 32 19.2 32h-6.4c-4.48 0-6.72 0-8.432-.872a8 8 0 0 1-3.496-3.496C0 25.92 0 23.68 0 19.2v-6.4Z"/></mask><g mask="url(#c)"><path fill="#EDEDED" d="M0 0h32v32H0V0Z"/><path fill="#4B4B4B" d="M26.25 13.8c0-.853 0-1.447-.038-1.91-.037-.453-.107-.714-.207-.912a2.25 2.25 0 0 0-.983-.983c-.198-.1-.459-.17-.913-.207-.462-.038-1.057-.038-1.909-.038H9.8c-.853 0-1.447 0-1.91.038-.453.037-.714.106-.911.207a2.25 2.25 0 0 0-.984.984c-.1.197-.17.458-.207.912-.038.462-.038 1.056-.038 1.909v4.4c0 .852 0 1.447.038 1.91.037.453.106.714.207.912.216.423.56.767.984.983.197.1.458.17.912.207.462.038 1.056.038 1.909.038h12.4c.852 0 1.447 0 1.91-.038.453-.037.714-.107.912-.207a2.25 2.25 0 0 0 .983-.983c.1-.198.17-.459.207-.913.038-.462.038-1.057.038-1.909v-4.4Zm1.5 4.4c0 .828.001 1.494-.043 2.031-.045.547-.14 1.027-.366 1.471a3.75 3.75 0 0 1-1.639 1.639c-.444.226-.924.321-1.47.366-.538.044-1.204.043-2.032.043H9.8c-.828 0-1.494.001-2.031-.043-.547-.045-1.027-.14-1.471-.366a3.75 3.75 0 0 1-1.639-1.639c-.226-.444-.321-.924-.366-1.47-.044-.538-.043-1.204-.043-2.032v-4.4c0-.828-.001-1.494.043-2.031.045-.547.14-1.027.366-1.471a3.75 3.75 0 0 1 1.639-1.639c.444-.226.924-.321 1.47-.366.538-.044 1.204-.043 2.032-.043h12.4c.828 0 1.494-.001 2.031.043.547.045 1.027.14 1.471.366.706.36 1.28.933 1.639 1.639.226.444.321.924.366 1.47.044.538.043 1.204.043 2.032v4.4Z"/></g></g></g><defs><clipPath id="a"><path fill="#fff" d="M0 0h32v32H0z"/></clipPath></defs></svg>