<svg xmlns="http://www.w3.org/2000/svg" width="32" height="32" fill="none"><g clip-path="url(#a)"><mask id="b" width="32" height="32" x="0" y="0" maskUnits="userSpaceOnUse" style="mask-type:luminance"><path fill="#fff" d="M0 0h32v32H0V0Z"/></mask><g mask="url(#b)"><path fill="#EDEDED" d="M0 12.8c0-4.48 0-6.72.872-8.432A8 8 0 0 1 4.368.872C6.08 0 8.32 0 12.8 0h6.4c4.48 0 6.72 0 8.432.872a8 8 0 0 1 3.496 3.496C32 6.08 32 8.32 32 12.8v6.4c0 4.48 0 6.72-.872 8.432a8 8 0 0 1-3.496 3.496C25.92 32 23.68 32 19.2 32h-6.4c-4.48 0-6.72 0-8.432-.872a8 8 0 0 1-3.496-3.496C0 25.92 0 23.68 0 19.2v-6.4Z"/><mask id="c" width="24" height="24" x="4" y="4" maskUnits="userSpaceOnUse" style="mask-type:luminance"><path fill="#fff" d="M4 4h24v24H4V4Z"/></mask><g mask="url(#c)"><path fill="#767676" d="M24.25 16a8.25 8.25 0 1 0-16.5 0 8.25 8.25 0 0 0 16.5 0Zm1.5 0A9.75 9.75 0 0 1 16 25.75 9.75 9.75 0 0 1 6.25 16 9.75 9.75 0 0 1 16 6.25 9.75 9.75 0 0 1 25.75 16Z"/><path fill="#4B4B4B" d="M15.25 19.75V16a.75.75 0 1 1 0-1.5 1.5 1.5 0 0 1 1.5 1.5v3.75a.75.75 0 1 1 0 1.5 1.5 1.5 0 0 1-1.5-1.5Zm.375-6.75a1.125 1.125 0 1 0 0-2.25 1.125 1.125 0 0 0 0 2.25Z"/></g></g></g><defs><clipPath id="a"><path fill="#fff" d="M0 0h32v32H0z"/></clipPath></defs></svg>