<svg xmlns="http://www.w3.org/2000/svg" width="32" height="32" fill="none"><g clip-path="url(#a)"><mask id="b" width="32" height="32" x="0" y="0" maskUnits="userSpaceOnUse" style="mask-type:luminance"><path fill="#fff" d="M0 0h32v32H0V0Z"/></mask><g mask="url(#b)"><path fill="#EDEDED" d="M0 12.8c0-4.48 0-6.72.872-8.432A8 8 0 0 1 4.368.872C6.08 0 8.32 0 12.8 0h6.4c4.48 0 6.72 0 8.432.872a8 8 0 0 1 3.496 3.496C32 6.08 32 8.32 32 12.8v6.4c0 4.48 0 6.72-.872 8.432a8 8 0 0 1-3.496 3.496C25.92 32 23.68 32 19.2 32h-6.4c-4.48 0-6.72 0-8.432-.872a8 8 0 0 1-3.496-3.496C0 25.92 0 23.68 0 19.2v-6.4Z"/><mask id="c" width="24" height="24" x="4" y="4" maskUnits="userSpaceOnUse" style="mask-type:luminance"><path fill="#fff" d="M4 4h24v24H4V4Z"/></mask><g mask="url(#c)"><path fill="#4B4B4B" d="M21.25 13a.75.75 0 0 1 .67.415l5.25 10.5a.75.75 0 0 1-1.34.67l-4.58-9.158-4.58 9.158a.75.75 0 0 1-1.34-.67l5.25-10.5a.75.75 0 0 1 .67-.415Z"/><path stroke="#4B4B4B" stroke-linecap="round" stroke-linejoin="round" stroke-width="1.5" d="M17.5 21.25H25"/><path fill="#4B4B4B" d="M12.25 9.25V7a.75.75 0 1 1 1.5 0v2.25a.75.75 0 1 1-1.5 0Z"/><path stroke="#4B4B4B" stroke-linecap="round" stroke-linejoin="round" stroke-width="1.5" d="M7 9.25h12"/><path fill="#4B4B4B" d="M15.25 9.25a.75.75 0 1 1 1.5 0A9.75 9.75 0 0 1 7 19a.75.75 0 1 1 0-1.5 8.25 8.25 0 0 0 8.25-8.25Z"/><path fill="#4B4B4B" d="M10.263 11.543a.75.75 0 0 1 .957.457A8.25 8.25 0 0 0 19 17.5a.75.75 0 0 1 0 1.5 9.75 9.75 0 0 1-9.194-6.5.75.75 0 0 1 .457-.957Z"/></g></g></g><defs><clipPath id="a"><path fill="#fff" d="M0 0h32v32H0z"/></clipPath></defs></svg>