<svg xmlns="http://www.w3.org/2000/svg" width="32" height="32" fill="none"><g clip-path="url(#a)"><path fill="#EDEDED" d="M0 12.8c0-4.48 0-6.72.872-8.432A8 8 0 0 1 4.368.872C6.08 0 8.32 0 12.8 0h6.4c4.48 0 6.72 0 8.432.872a8 8 0 0 1 3.496 3.496C32 6.08 32 8.32 32 12.8v6.4c0 4.48 0 6.72-.872 8.432a8 8 0 0 1-3.496 3.496C25.92 32 23.68 32 19.2 32h-6.4c-4.48 0-6.72 0-8.432-.872a8 8 0 0 1-3.496-3.496C0 25.92 0 23.68 0 19.2v-6.4Z"/><mask id="b" width="26" height="26" x="3" y="3" maskUnits="userSpaceOnUse" style="mask-type:luminance"><path fill="#fff" d="M3.556 3.556h24.89v24.889H3.555V3.556Z"/></mask><g fill="#434343" mask="url(#b)"><path d="M18.333 16a2.333 2.333 0 1 0-4.666 0 2.333 2.333 0 0 0 4.666 0Zm1.556 0a3.889 3.889 0 1 1-7.777 0 3.889 3.889 0 0 1 7.777 0Z" opacity=".95"/><path d="M10.203 10.815a.778.778 0 0 1 1.158 1.037 6.217 6.217 0 0 0-.186 8.078l.186.218.051.061a.778.778 0 0 1-1.209.976 7.773 7.773 0 0 1 0-10.37Zm10.496-.06a.778.778 0 0 1 1.098.06A7.773 7.773 0 0 1 23.78 16l-.008.358a7.772 7.772 0 0 1-1.975 4.827.777.777 0 1 1-1.158-1.037 6.219 6.219 0 0 0 1.58-3.861l.006-.287a6.22 6.22 0 0 0-1.586-4.148.778.778 0 0 1 .06-1.098v.001Z" opacity=".7"/><path d="M7.667 7.835a.778.778 0 0 1 1.11 1.09 10.1 10.1 0 0 0-.338 13.79l.338.36.053.06a.778.778 0 0 1-1.163 1.03 11.657 11.657 0 0 1 0-16.33Zm15.566-.01a.778.778 0 0 1 1.1.01 11.656 11.656 0 0 1 0 16.33.778.778 0 0 1-1.11-1.09 10.101 10.101 0 0 0 0-14.15.778.778 0 0 1 .01-1.1Z" opacity=".4"/></g></g><defs><clipPath id="a"><path fill="#fff" d="M0 0h32v32H0z"/></clipPath></defs></svg>