<svg xmlns="http://www.w3.org/2000/svg" width="32" height="32" fill="none"><g clip-path="url(#a)"><mask id="b" width="32" height="32" x="0" y="0" maskUnits="userSpaceOnUse" style="mask-type:luminance"><path fill="#fff" d="M0 0h32v32H0V0Z"/></mask><g mask="url(#b)"><path fill="#EDEDED" d="M0 12.8c0-4.48 0-6.72.872-8.432A8 8 0 0 1 4.368.872C6.08 0 8.32 0 12.8 0h6.4c4.48 0 6.72 0 8.432.872a8 8 0 0 1 3.496 3.496C32 6.08 32 8.32 32 12.8v6.4c0 4.48 0 6.72-.872 8.432a8 8 0 0 1-3.496 3.496C25.92 32 23.68 32 19.2 32h-6.4c-4.48 0-6.72 0-8.432-.872a8 8 0 0 1-3.496-3.496C0 25.92 0 23.68 0 19.2v-6.4Z"/><mask id="c" width="22" height="24" x="5" y="4" maskUnits="userSpaceOnUse" style="mask-type:luminance"><path fill="#fff" d="M5 4.645h22v22.71H5V4.645Z"/></mask><g mask="url(#c)"><path fill="#434343" d="M16.002 5c-6.072 0-11 4.928-11 11s4.928 11 11 11 11-4.928 11-11-4.928-11-11-11Z" opacity=".95"/><path fill="#EDEDED" d="M23.035 14.896c-.23 0-.372-.058-.572-.174-3.158-1.885-8.804-2.337-12.459-1.317-.16.045-.36.116-.572.116a1.025 1.025 0 0 1-1.034-1.047c0-.604.373-.945.772-1.06 1.562-.457 3.31-.675 5.212-.675 3.238 0 6.631.675 9.11 2.12.346.2.573.475.573 1.003 0 .603-.488 1.034-1.03 1.034Zm-1.375 3.38c-.23 0-.385-.103-.545-.187-2.772-1.641-6.906-2.302-10.583-1.304-.213.058-.328.115-.528.115a.86.86 0 0 1-.86-.86c0-.475.23-.79.687-.918a14.92 14.92 0 0 1 4.338-.604c2.879 0 5.66.715 7.85 2.019.36.213.502.488.502.873a.86.86 0 0 1-.86.865l-.001.001Zm-1.193 2.909c-.186 0-.301-.058-.474-.16-2.768-1.667-5.988-1.738-9.168-1.086-.173.044-.4.115-.528.115a.69.69 0 0 1-.701-.7c0-.458.27-.675.603-.746 3.633-.803 7.345-.732 10.512 1.162.27.173.43.328.43.732a.671.671 0 0 1-.674.683Z"/></g></g></g><defs><clipPath id="a"><path fill="#fff" d="M0 0h32v32H0z"/></clipPath></defs></svg>