<svg xmlns="http://www.w3.org/2000/svg" width="32" height="32" fill="none"><g clip-path="url(#a)"><mask id="b" width="32" height="32" x="0" y="0" maskUnits="userSpaceOnUse" style="mask-type:luminance"><path fill="#fff" d="M0 0h32v32H0V0Z"/></mask><g mask="url(#b)"><path fill="#EDEDED" d="M0 12.8c0-4.48 0-6.72.872-8.432A8 8 0 0 1 4.368.872C6.08 0 8.32 0 12.8 0h6.4c4.48 0 6.72 0 8.432.872a8 8 0 0 1 3.496 3.496C32 6.08 32 8.32 32 12.8v6.4c0 4.48 0 6.72-.872 8.432a8 8 0 0 1-3.496 3.496C25.92 32 23.68 32 19.2 32h-6.4c-4.48 0-6.72 0-8.432-.872a8 8 0 0 1-3.496-3.496C0 25.92 0 23.68 0 19.2v-6.4Z"/><path fill="#4B4B4B" d="M11.414 12.684a1.503 1.503 0 0 1-.922.316H6.25v6h4.242c.334 0 .659.112.922.316l5.336 4.15V8.534l-5.336 4.15Zm6.836 10.783c0 1.248-1.436 1.95-2.42 1.183l-5.338-4.15H6.25a1.5 1.5 0 0 1-1.5-1.5v-6a1.5 1.5 0 0 1 1.5-1.5h4.242l5.337-4.15c.985-.767 2.42-.065 2.421 1.183v14.934Z"/><path fill="#767676" d="M20.499 16c0-.548-.2-1.076-.561-1.487a.75.75 0 0 1 1.125-.992 3.752 3.752 0 0 1 0 4.957.75.75 0 1 1-1.125-.991c.36-.41.56-.94.56-1.487Z"/><path fill="#A9A9A9" d="M25.217 16a6 6 0 0 0-1.527-4 .749.749 0 1 1 1.117-1 7.5 7.5 0 0 1 0 10 .75.75 0 0 1-1.117-1 6 6 0 0 0 1.527-4Z"/></g></g><defs><clipPath id="a"><path fill="#fff" d="M0 0h32v32H0z"/></clipPath></defs></svg>