<svg xmlns="http://www.w3.org/2000/svg" width="24" height="24" viewBox="0 0 24 24" fill="none"><path fill="currentColor" d="M5.25 3a.75.75 0 0 1 .75.75v6.098a2.998 2.998 0 0 1 0 5.804v4.598a.75.75 0 0 1-1.5 0v-4.599a2.998 2.998 0 0 1 0-5.803V3.75A.75.75 0 0 1 5.25 3ZM12 3a.75.75 0 0 1 .75.75v1.598a2.998 2.998 0 0 1 0 5.804v9.098a.75.75 0 0 1-1.5 0v-9.099a2.998 2.998 0 0 1 0-5.803V3.75A.75.75 0 0 1 12 3Zm6.75 0a.75.75 0 0 1 .75.75v9.098a2.998 2.998 0 0 1 0 5.804v1.598a.75.75 0 0 1-1.5 0v-1.599a2.998 2.998 0 0 1 0-5.803V3.75a.75.75 0 0 1 .75-.75Zm0 11.25a1.5 1.5 0 1 0 0 3 1.5 1.5 0 0 0 0-3Zm-13.5-3a1.5 1.5 0 1 0 0 3 1.5 1.5 0 0 0 0-3ZM12 6.75a1.5 1.5 0 1 0 0 3 1.5 1.5 0 0 0 0-3Z"/></svg>