<svg xmlns="http://www.w3.org/2000/svg" width="24" height="24" viewBox="0 0 24 24" fill="none"><g clip-path="url(#a)"><mask id="b" width="25" height="24" x="0" y="0" maskUnits="userSpaceOnUse" style="mask-type:luminance"><path fill="#fff" d="M.428 0h24v24h-24V0Z"/></mask><g mask="url(#b)"><path fill="#fff" d="M12.429 19.714S3.857 14.804 3.857 9.02c0-1.256.47-2.46 1.304-3.347.834-.888 1.966-1.387 3.147-1.387 1.86 0 3.456 1.08 4.12 2.805.665-1.726 2.26-2.805 4.12-2.805 1.18 0 2.314.5 3.149 1.387A4.89 4.89 0 0 1 21 9.02c0 5.786-8.571 10.695-8.571 10.695Z" opacity=".24"/></g></g><defs><clipPath id="a"><path fill="#fff" d="M0 0h24v24H0z"/></clipPath></defs></svg>