<svg xmlns="http://www.w3.org/2000/svg" width="24" height="24" viewBox="0 0 24 24" fill="none"><g clip-path="url(#a)"><path fill="currentColor" d="M8.616 3.66a9.003 9.003 0 0 1 9.745 1.972L21 8.046V5.25a.75.75 0 0 1 1.5 0v4.5a.752.752 0 0 1-.008.097l-.004.028c-.004.024-.011.047-.017.07a.733.733 0 0 1-.023.074.718.718 0 0 1-.036.076c-.011.022-.022.044-.036.065l-.009.014a.765.765 0 0 1-.064.082l-.015.015-.017.015a.74.74 0 0 1-.091.077c-.022.015-.045.027-.069.04-.02.011-.04.024-.061.033-.017.007-.034.011-.05.017-.03.01-.06.022-.09.029a.752.752 0 0 1-.119.015l-.016.001-.025.002h-4.5a.75.75 0 0 1 0-1.5h2.57L17.326 6.72l-.023-.023A7.503 7.503 0 0 0 5.81 7.765a7.502 7.502 0 0 0 3.17 11.1 7.504 7.504 0 0 0 8.168-1.41l.058-.05a.75.75 0 0 1 .97 1.14l-.244.223A9 9 0 1 1 8.616 3.659Z"/></g><defs><clipPath id="a"><path fill="#fff" d="M0 0h24v24H0z"/></clipPath></defs></svg>