<svg width="16" height="16" viewBox="0 0 16 16" fill="none" xmlns="http://www.w3.org/2000/svg">
<rect width="16" height="16" rx="4" fill="#F6F7F6"/>
<path d="M8.00366 5.1045C9.23733 5.1045 10.2533 5.48186 11.0516 6.22206C11.8498 6.96226 12.2562 7.90566 12.2562 9.05225C12.2562 10.1988 11.8498 11.1422 11.037 11.8824C10.2388 12.6226 9.22281 13 8.00366 13C6.76998 13 5.73951 12.6372 4.94125 11.897C4.14299 11.1567 3.7366 10.1988 3.7366 9.05225C3.7366 7.90566 4.14299 6.96226 4.94125 6.22206C5.73951 5.48186 6.76998 5.1045 8.00366 5.1045ZM8.00366 6.23658C7.11832 6.23658 6.39263 6.49782 5.82659 7.02032C5.26055 7.54282 4.98479 8.22496 4.98479 9.05225C4.98479 9.87954 5.26055 10.5617 5.82659 11.0842C6.39263 11.6067 7.11832 11.8679 8.00366 11.8679C8.87448 11.8679 9.58566 11.6067 10.1517 11.0842C10.7177 10.5617 10.9935 9.87954 10.9935 9.05225C10.9935 8.22496 10.7177 7.54282 10.1517 7.02032C9.58566 6.49782 8.87448 6.23658 8.00366 6.23658ZM10.3984 3V4.04499H5.57985V3H10.3984Z" fill="#767C76"/>
</svg>
