<svg xmlns="http://www.w3.org/2000/svg" width="32" height="32" fill="none"><rect width="32" height="32" fill="#fff" rx="7.5"/><path fill="#A6ACA6" d="M16.187 21.528c1.36-2.351 4.598-3.296 8.638-2.888l4.172 7.242H15.749c-.397-1.62-.278-3.117.438-4.354Z"/><path fill="#A6ACA6" d="M11.995 17.498c1.378 2.381 1.221 5.375-.153 8.383l-8.838.002 6.383-10.992c1.093.657 1.984 1.526 2.61 2.607h-.002Z" opacity=".7"/><path fill="#A6ACA6" d="M18.59 16.422c1.49 0 2.902-.493 4.164-1.375L16.056 3.41l-4.754 8.181c1.786 2.963 4.389 4.83 7.286 4.83h.001Z" opacity=".34"/></svg>