<svg xmlns="http://www.w3.org/2000/svg" width="40" height="40" fill="none"><g clip-path="url(#a)"><path fill="#F93939" d="M6 10h27.5v20H6z"/><path fill="#F93939" d="M30.881 10H8.619C7.173 10 6 11.194 6 12.667v14.666C6 28.806 7.173 30 8.619 30h22.262c1.446 0 2.619-1.194 2.619-2.667V12.667c0-1.473-1.173-2.667-2.619-2.667Z"/><path fill="#FFDA2C" fill-rule="evenodd" d="m13.202 19.64-1.925 1.03.367-2.182-1.556-1.547 2.151-.316.963-1.986.961 1.986 2.152.316-1.559 1.547.37 2.181-1.924-1.029ZM17.788 14h1.31v1.333h-1.31V14Zm1.31 2.667h1.309V18h-1.31v-1.333Zm0 2.666h1.309v1.334h-1.31v-1.334ZM17.787 22h1.31v1.333h-1.31V22Z" clip-rule="evenodd"/></g><defs><clipPath id="a"><rect width="27.5" height="20" x="6" y="10" fill="#fff" rx="2.5"/></clipPath></defs></svg>