<svg xmlns="http://www.w3.org/2000/svg" width="40" height="40" fill="none"><g clip-path="url(#a)"><path fill="#fff" d="M6 10h27.5v20H6z"/><path fill="#1A47B8" fill-rule="evenodd" d="M19.75 23.333c1.808 0 3.274-1.493 3.274-3.333s-1.466-3.334-3.274-3.334c-1.807 0-3.273 1.494-3.273 3.334s1.466 3.333 3.273 3.333Zm0-1.333c1.085 0 1.965-.896 1.965-2s-.88-2-1.965-2c-1.084 0-1.964.896-1.964 2s.88 2 1.964 2Z" clip-rule="evenodd"/><path fill="#1A47B8" d="M19.75 20.667a.66.66 0 0 0 .655-.667.66.66 0 0 0-.655-.667.66.66 0 0 0-.654.667.66.66 0 0 0 .654.667Z"/><path fill="#249F58" fill-rule="evenodd" d="M6 23.75h27.5V30H6v-6.25Z" clip-rule="evenodd"/><path fill="#FF6C2D" fill-rule="evenodd" d="M6 10h27.5v6.25H6V10Z" clip-rule="evenodd"/></g><defs><clipPath id="a"><rect width="27.5" height="20" x="6" y="10" fill="#fff" rx="2.5"/></clipPath></defs></svg>