<svg xmlns="http://www.w3.org/2000/svg" width="40" height="40" fill="none"><g clip-path="url(#a)"><path fill="#F93939" d="M6 10h27.5v20H6z"/><path fill="#249F58" fill-rule="evenodd" d="M6 10h8.75v20H6V10Z" clip-rule="evenodd"/><path fill="#FFDA2C" d="M15.169 23.333c2.17 0 3.928-1.79 3.928-4 0-2.209-1.759-4-3.928-4-2.17 0-3.929 1.791-3.929 4 0 2.21 1.76 4 3.929 4Z"/><path fill="#F93939" fill-rule="evenodd" d="M17.787 20.666v-4h-5.238v4c0 .736 1.172 1.334 2.619 1.334 1.447 0 2.619-.598 2.619-1.334Z" clip-rule="evenodd"/><path fill="#fff" fill-rule="evenodd" d="M13.857 18h2.62v2.667h-2.62V18Z" clip-rule="evenodd"/><path fill="#1A47B8" fill-rule="evenodd" d="M13.857 18h1.31v1.333h-1.31V18Zm1.31 1.333h1.31v1.334h-1.31v-1.334Z" clip-rule="evenodd"/></g><defs><clipPath id="a"><rect width="27.5" height="20" x="6" y="10" fill="#fff" rx="2.5"/></clipPath></defs></svg>