<svg xmlns="http://www.w3.org/2000/svg" width="40" height="40" fill="none"><g clip-path="url(#a)"><path fill="#F93939" d="M6 10h27.5v20H6z"/><path fill="#F93939" d="M30.881 10H8.619C7.173 10 6 11.194 6 12.667v14.666C6 28.806 7.173 30 8.619 30h22.262c1.446 0 2.619-1.194 2.619-2.667V12.667c0-1.473-1.173-2.667-2.619-2.667Z"/><path fill="#FFDA2C" fill-rule="evenodd" d="M6 15.333h27.5v9.334H6v-9.334Z" clip-rule="evenodd"/><path fill="#D4AF2C" fill-rule="evenodd" d="M17.788 18.296v3.36c0 .933-.88 1.68-1.964 1.68h-2.62c-1.081-.003-1.964-.753-1.964-1.683v-3.36c0-.762.587-1.4 1.394-1.606.243-.694.992-.072 1.88-.072.893 0 1.637-.618 1.88.073.805.212 1.394.85 1.394 1.608Z" clip-rule="evenodd"/><path fill="#CBCBCB" fill-rule="evenodd" d="M17.785 19.333h1.31v4h-1.31v-4Zm-7.857 0h1.31v4h-1.31v-4Z" clip-rule="evenodd"/><path fill="#1A47B8" fill-rule="evenodd" d="M17.785 22h1.31v1.334h-1.31V22Zm-7.857 0h1.31v1.334h-1.31V22Z" clip-rule="evenodd"/><path fill="#D4AF2C" fill-rule="evenodd" d="M17.785 18h1.31v1.333h-1.31V18Zm-7.857 0h1.31v1.333h-1.31V18Z" clip-rule="evenodd"/><path fill="#AF010D" fill-rule="evenodd" d="M12.549 18h1.31v2h-1.31v-2Zm2.619 2.667h1.31v2h-1.31v-2Z" clip-rule="evenodd"/><path fill="#AE6A3E" fill-rule="evenodd" d="M15.168 18h1.31v2h-1.31v-2Z" clip-rule="evenodd"/><path fill="#FFDA2C" fill-rule="evenodd" d="M12.549 20.667h1.31v2h-1.31v-2Z" clip-rule="evenodd"/><path fill="#AF010D" fill-rule="evenodd" d="m13.858 18-1.31-1.334h3.93L15.167 18h-1.31Z" clip-rule="evenodd"/><path fill="#D4AF2C" fill-rule="evenodd" d="M13.857 15.333h1.31v1.334h-1.31v-1.334Z" clip-rule="evenodd"/></g><defs><clipPath id="a"><rect width="27.5" height="20" x="6" y="10" fill="#fff" rx="2.5"/></clipPath></defs></svg>