<svg xmlns="http://www.w3.org/2000/svg" width="40" height="40" fill="none"><g clip-path="url(#a)"><path fill="#1A47B8" d="M6 10h27.5v20H6z"/><path fill="#fff" fill-rule="evenodd" d="M8.925 10H6v3.333L30.559 30H33.5v-3.333L8.925 10Z" clip-rule="evenodd"/><path fill="#F93939" d="M6.976 10 33.5 28.047V30h-.953L6 11.934V10h.976Z"/><path fill="#fff" fill-rule="evenodd" d="M30.881 10H33.5v3.333S16.489 24.437 8.62 30H6v-3.333L30.881 10Z" clip-rule="evenodd"/><path fill="#F93939" d="M33.5 10h-.888L6 28.063V30h.976L33.5 11.949V10Z"/><path fill="#fff" fill-rule="evenodd" d="M16 10h7.522v6.17H33.5v7.657h-9.978V30H16v-6.173H6v-7.658h10V10Z" clip-rule="evenodd"/><path fill="#F93939" fill-rule="evenodd" d="M17.579 10h4.342v7.692H33.5v4.616H21.921V30H17.58v-7.692H6v-4.616h11.579V10Z" clip-rule="evenodd"/></g><defs><clipPath id="a"><rect width="27.5" height="20" x="6" y="10" fill="#fff" rx="2.5"/></clipPath></defs></svg>